<?xml version="1.0" encoding="utf-8"?>
<!-- Generator: Adobe Illustrator 21.1.0, SVG Export Plug-In . SVG Version: 6.00 Build 0)  -->
<svg version="1.1" id="_x30_1" xmlns="http://www.w3.org/2000/svg" xmlns:xlink="http://www.w3.org/1999/xlink" x="0px" y="0px"
	 viewBox="0 0 489.773 106.548" style="enable-background:new 0 0 489.773 106.548;" xml:space="preserve">
<style type="text/css">
	.st0{fill:#CF0A2C;}
</style>
<g>
	<g>
		<g>
			<path class="st0" d="M95.961,89.333l-5.216,16.349h-6.472l-5.215-16.314l-0.152,16.661H73.27l0.838-21.648h8.566l4.949,16.245
				l4.949-16.245h8.452l0.799,21.648h-5.749L95.961,89.333z"/>
			<path class="st0" d="M108.902,106.028V84.38H126.3v4.434h-11.459v4.157h9.213v4.399h-9.213v4.226H126.3v4.434H108.902z"/>
			<path class="st0" d="M155.003,106.028h-6.015l-1.751-4.607h-8.832l-1.713,4.607h-6.015l8.452-21.648h7.576L155.003,106.028z
				 M142.859,88.64l-3.16,8.486h6.205L142.859,88.64z"/>
			<path class="st0" d="M170.686,88.987v17.042h-6.053V88.987h-7.576V84.38h21.206v4.607H170.686z"/>
			<path class="st0" d="M201.558,106.548c-4.492,0-7.652-2.39-7.652-5.923c0-3.014,2.627-5.126,5.406-5.75
				c-2.018-1.004-3.541-2.736-3.541-4.953c0-2.944,2.741-6.027,7.804-6.027c4.417,0,7.576,2.113,7.576,5.265
				c0,2.425-2.208,4.122-4.568,4.78c0.875,0.381,2.208,1.385,3.274,2.286l2.208-3.707h6.206l-5.444,6.478l5.71,6.477l-5.977,0.97
				l-2.97-3.879C207.23,105.232,204.337,106.548,201.558,106.548z M201.939,96.261c-1.561,0.831-2.627,2.009-2.627,3.325
				c0,1.801,1.523,2.909,3.426,2.909c1.828,0,3.312-1.004,4.568-2.598C205.517,98.166,203.614,96.85,201.939,96.261z
				 M206.126,89.783c0-1.455-1.142-2.355-2.703-2.355c-1.523,0-2.551,1.039-2.551,2.251c0,1.455,1.256,2.32,3.083,3.048
				C205.175,92,206.126,91.169,206.126,89.783z"/>
			<path class="st0" d="M246.477,106.548c-7.613,0-12.791-4.122-12.791-11.257c0-7.101,5.025-11.43,12.829-11.43
				c3.046,0,6.663,0.624,8.947,1.871l-1.904,4.606c-2.246-1.178-4.568-1.801-6.853-1.801c-4.263,0-7.004,2.598-7.004,6.616
				c0,4.33,2.398,6.893,6.928,6.893c1.371,0,2.817-0.277,3.808-0.658V98.2h-5.863v-4.364h11.346v10.703
				C253.33,105.82,249.942,106.548,246.477,106.548z"/>
			<path class="st0" d="M269.013,106.028h-6.054V84.38c0,0,9.784,0,9.556,0c6.32,0,9.632,2.667,9.632,6.858
				c0,2.909-1.675,5.126-4.873,6.234l6.092,8.556h-6.814l-4.759-7.274l-2.779,0.208V106.028z M271.945,94.806
				c2.588-0.173,3.997-1.143,3.997-3.221c0-1.905-1.447-2.84-4.492-2.84c-0.114,0-2.551,0-2.551,0v6.131L271.945,94.806z"/>
			<path class="st0" d="M299.772,106.548c-7.044,0-12.411-3.983-12.411-11.292c0-6.858,5.405-11.396,12.487-11.396
				c7.081,0,12.448,3.949,12.448,11.257C312.296,101.976,306.853,106.548,299.772,106.548z M299.772,88.294
				c-4.036,0-6.32,2.771-6.32,6.824c0,4.156,2.36,6.997,6.434,6.997c3.998,0,6.32-2.806,6.32-6.858
				C306.205,91.1,303.807,88.294,299.772,88.294z"/>
			<path class="st0" d="M336.05,90.095c-1.789-0.97-3.884-1.559-6.016-1.559c-4.111,0-6.776,2.528-6.776,6.616
				c0,4.122,2.513,6.72,6.814,6.72c2.322,0,4.492-0.693,6.282-1.767l1.256,4.884c-1.865,0.935-5.025,1.559-7.805,1.559
				c-7.613,0-12.639-3.983-12.639-11.257c0-6.997,4.987-11.43,12.829-11.43c2.894,0,5.711,0.658,7.881,1.628L336.05,90.095z"/>
			<path class="st0" d="M344.157,106.028V84.38h17.398v4.434h-11.459v4.157h9.213v4.399h-9.213v4.226h11.459v4.434H344.157z"/>
			<path class="st0" d="M374.383,106.028h-6.054V84.38c0,0,9.784,0,9.556,0c6.319,0,9.632,2.667,9.632,6.858
				c0,2.909-1.675,5.126-4.873,6.234l6.092,8.556h-6.815l-4.758-7.274l-2.779,0.208V106.028z M377.315,94.806
				c2.588-0.173,3.997-1.143,3.997-3.221c0-1.905-1.447-2.84-4.492-2.84c-0.114,0-2.551,0-2.551,0v6.131L377.315,94.806z"/>
			<path class="st0" d="M405.103,97.819v8.209h-5.939v-8.244l-8.299-13.405h6.434l4.911,8.556l4.759-8.556h6.396L405.103,97.819z"/>
		</g>
		<rect y="84.198" class="st0" width="61.2" height="21.776"/>
		<rect x="424.03" y="83.86" class="st0" width="61.2" height="22.115"/>
		<g>
			<g>
				<path class="st0" d="M0.012,64.947h33.726V50.746h-7.263V39.857h20.28V24.43h-20.28v-9.002h26.788V0H0.012v14.201h6.32v36.546
					h-6.32V64.947z"/>
			</g>
			<g>
				<path class="st0" d="M98.314,64.947h22.442V50.746h-5.881L98.463,0H70.367L53.86,50.746h-5.88v14.201h20.839l3.585-12.64H94.73
					L98.314,64.947z M90.258,36.786H76.875l6.691-23.073L90.258,36.786z"/>
			</g>
			<g>
				<path class="st0" d="M151.986,40.14h5.05l0.224,0.141c1.32,0.834,2.455,2.086,3.375,3.722c0.864,1.535,1.661,3.259,2.369,5.122
					c0.691,1.824,1.414,3.708,2.168,5.654c0.727,1.88,1.616,3.613,2.643,5.152c0.994,1.491,2.236,2.72,3.693,3.651
					c1.414,0.906,3.215,1.365,5.355,1.365h15.307V50.746h-2.196c-1.918,0-3.395-0.622-4.391-1.849
					c-0.862-1.058-1.65-2.38-2.342-3.929c-0.644-1.442-1.368-2.969-2.152-4.539c-0.723-1.444-1.764-2.703-3.093-3.744l-1.085-0.849
					l1.202-0.673c1.518-0.851,2.851-1.754,3.962-2.686c1.085-0.909,2.008-1.949,2.742-3.093c0.728-1.138,1.276-2.442,1.626-3.873
					c0.358-1.461,0.54-3.182,0.54-5.111c0-3.008-0.516-5.795-1.535-8.283c-1.012-2.467-2.549-4.622-4.569-6.404
					c-2.033-1.795-4.637-3.208-7.738-4.201C170.006,0.509,166.308,0,162.147,0h-35.492v14.201h6.32v36.546h-6.32v14.201h31.085
					V50.746h-5.754V40.14z M159.223,27.354h-7.142V15.145h7.142c5.669,0,6.859,3.32,6.859,6.105c0,2.104-0.622,3.677-1.848,4.674
					C163.065,26.872,161.379,27.354,159.223,27.354z"/>
			</g>
			<g>
				<path class="st0" d="M198.066,64.947h53.252V49.52H224.53V39.385h21.695V23.958H224.53v-8.53h24.995V0h-51.459v14.201h6.32
					v36.546h-6.32V64.947z"/>
			</g>
			<g>
				<path class="st0" d="M316.619,64.947h23.92l12.451-50.747h6.405V0h-22.171l-7.453,44.615L320.144,0h-22.665l-9.627,44.615
					L280.398,0h-25.001v14.201h6.408l12.262,50.747h23.911l9.115-42.3L316.619,64.947z"/>
			</g>
			<g>
				<path class="st0" d="M403.838,64.947h22.442V50.746h-5.882L403.986,0h-28.095l-16.507,50.746h-5.881v14.201h20.839l3.585-12.64
					h22.325L403.838,64.947z M395.781,36.786h-13.382l6.69-23.074L395.781,36.786z"/>
			</g>
			<g>
				<path class="st0" d="M436.045,64.947h33.349V50.746h-6.32V38.124l16.951-23.923h5.216V0h-18.004l-13.888,22.297L438.875,0
					h-18.959v14.201h5.217l17.232,24.396v12.15h-6.319V64.947z"/>
			</g>
		</g>
	</g>
	<g>
		<path class="st0" d="M477.045,55.286c0.353-0.799,0.832-1.493,1.438-2.08c0.605-0.588,1.31-1.049,2.115-1.384
			c0.804-0.335,1.659-0.503,2.564-0.503c0.906,0,1.757,0.167,2.557,0.503c0.799,0.335,1.498,0.796,2.097,1.384
			c0.599,0.587,1.075,1.281,1.428,2.08c0.353,0.799,0.529,1.663,0.529,2.591c0,0.952-0.176,1.831-0.529,2.636
			s-0.829,1.504-1.428,2.098c-0.599,0.594-1.299,1.055-2.097,1.384c-0.8,0.328-1.651,0.494-2.557,0.494
			c-0.905,0-1.76-0.165-2.564-0.494c-0.806-0.329-1.511-0.79-2.115-1.384c-0.606-0.594-1.085-1.293-1.438-2.098
			s-0.529-1.683-0.529-2.636C476.516,56.949,476.692,56.085,477.045,55.286z M478.13,60.125c0.275,0.687,0.657,1.284,1.146,1.789
			c0.487,0.505,1.063,0.902,1.727,1.19s1.384,0.432,2.159,0.432c0.764,0,1.475-0.144,2.133-0.432c0.658-0.288,1.231-0.684,1.72-1.19
			c0.487-0.505,0.869-1.102,1.146-1.789c0.275-0.688,0.414-1.437,0.414-2.248c0-0.787-0.139-1.522-0.414-2.203
			c-0.277-0.682-0.658-1.272-1.146-1.772c-0.489-0.499-1.062-0.893-1.72-1.181c-0.658-0.288-1.369-0.432-2.133-0.432
			c-0.775,0-1.495,0.145-2.159,0.432c-0.664,0.288-1.239,0.682-1.727,1.181c-0.489,0.5-0.87,1.09-1.146,1.772
			c-0.277,0.682-0.414,1.416-0.414,2.203C477.716,58.688,477.853,59.437,478.13,60.125z M483.568,54.052
			c0.917,0,1.595,0.182,2.035,0.546c0.441,0.365,0.662,0.917,0.662,1.657c0,0.693-0.194,1.201-0.582,1.525
			c-0.388,0.323-0.87,0.514-1.446,0.573l2.205,3.402h-1.288l-2.097-3.314h-1.27v3.314h-1.199v-7.703H483.568z M483.039,57.472
			c0.27,0,0.526-0.009,0.767-0.027c0.241-0.017,0.454-0.067,0.643-0.149c0.187-0.083,0.337-0.209,0.449-0.379
			c0.112-0.17,0.168-0.408,0.168-0.714c0-0.258-0.05-0.464-0.15-0.617c-0.099-0.153-0.229-0.27-0.387-0.353
			c-0.16-0.082-0.341-0.138-0.547-0.167c-0.207-0.03-0.409-0.044-0.609-0.044h-1.586v2.45H483.039z"/>
	</g>
</g>
</svg>
